<svg width="40" height="40" viewBox="0 0 40 40" fill="none" xmlns="http://www.w3.org/2000/svg">
<mask id="mask0_0_968" style="mask-type:luminance" maskUnits="userSpaceOnUse" x="0" y="0" width="40" height="40">
<path d="M0.492111 0.588863H39.019V39.4875H0.492111V0.588863Z" fill="white"/>
</mask>
<g mask="url(#mask0_0_968)">
<path d="M35.7812 33.5116L24.0629 12.9395L20.6557 18.8883L29.0216 33.5116H35.7812ZM22.886 27.546H6.18311L3.4724 33.5116H26.2979L22.886 27.546ZM14.3431 25.1599L22.7043 10.5553L19.0551 5.70132L7.5445 25.1599H14.3431Z" fill="#0149EC"/>
<path d="M21.5186 25.16L19.2929 21.2651L17.0635 25.16H21.5205H21.5186ZM26.2955 33.5014L6.18079 27.5349L3.69914 33.5005L26.2955 33.5014ZM7.54311 25.16L22.7029 10.5553L18.5946 5.93115L7.54403 25.1591L7.54311 25.16ZM24.0615 12.9395L29.0211 33.5116H35.7807L24.0615 12.9395Z" fill="#0149EC"/>
<path d="M22.9542 3.8977L25.0492 11.8512L15.0586 6.12003L22.9542 3.8977ZM0.550705 31.0512L6.34309 25.2279L6.44232 36.7721L0.550705 31.0512ZM32.3596 39.5163L26.6146 33.5117H38.0713L32.3596 39.5163Z" fill="#0149EC"/>
</g>
</svg>
