<svg width="73" height="33" viewBox="0 0 73 33" fill="none" xmlns="http://www.w3.org/2000/svg">
<path d="M51.7344 22.4044V4.30469H55.4839V22.4044H51.7344Z" fill="#F7A600"/>
<path d="M8.03805 25.2736H0V7.17383H7.71516C11.4647 7.17383 13.649 9.15729 13.649 12.258C13.649 14.2657 12.2456 15.5635 11.2745 15.9958C12.4342 16.5034 13.9177 17.6473 13.9177 20.0631C13.9177 23.4431 11.4647 25.2736 8.03805 25.2736ZM7.41813 10.3263H3.74953V14.4957H7.4173C9.00839 14.4957 9.89863 13.6569 9.89863 12.4102C9.89863 11.1659 9.00922 10.3263 7.41813 10.3263ZM7.66009 17.6732H3.75037V22.1227H7.66176C9.36131 22.1227 10.169 21.1059 10.169 19.885C10.169 18.665 9.35964 17.6732 7.66176 17.6732H7.66009ZM25.354 17.8514V25.2736H21.6311V17.8514L15.8583 7.17383H19.9316L23.5193 14.4697L27.0527 7.17383H31.1251L25.354 17.8514ZM41.7555 25.2736H33.7174V7.17383H41.4317C45.1813 7.17383 47.3664 9.15729 47.3664 12.258C47.3664 14.2657 45.963 15.5635 44.9919 15.9958C46.1516 16.5034 47.6351 17.6473 47.6351 20.0631C47.6351 23.4431 45.1821 25.2736 41.7555 25.2736ZM41.1355 10.3263H37.4669V14.4957H41.1355C42.7266 14.4957 43.6169 13.6569 43.6169 12.4102C43.6169 11.1659 42.7266 10.3263 41.1355 10.3263ZM41.3775 17.6732H37.4661V22.1227H41.3775C43.0779 22.1227 43.8855 21.1059 43.8855 19.885C43.8855 18.665 43.0779 17.6732 41.3775 17.6732ZM67.57 10.3271V25.2752H63.8204V10.3263H58.8044V7.17383H72.5877V10.3263L67.57 10.3271Z" fill="#15192A"/>
</svg>
