<svg width="167" height="33" viewBox="0 0 167 33" fill="none" xmlns="http://www.w3.org/2000/svg">
<g clip-path="url(#clip0_1_1040)">
<path d="M10.2126 13.8662L16.6996 7.4596L23.1892 13.8714L26.9616 10.1416L16.6996 0L6.4375 10.139L10.2126 13.8662Z" fill="#F3BA2F"/>
<path d="M-0.00390625 16.5L3.76978 12.7716L7.54347 16.5L3.76978 20.2284L-0.00390625 16.5Z" fill="#F3BA2F"/>
<path d="M10.21 19.1335L16.697 25.5427L23.1867 19.1309L26.9617 22.8554L26.9591 22.8581L16.697 32.9997L6.43496 22.8633L6.42969 22.8581L10.21 19.1335Z" fill="#F3BA2F"/>
<path d="M25.8516 16.501L29.6253 12.7725L33.3989 16.501L29.6253 20.2294L25.8516 16.501Z" fill="#F3BA2F"/>
<path d="M20.5242 16.4984L16.6964 12.7139L13.8657 15.5106L13.5386 15.8312L12.8686 16.4932L12.8633 16.4984L12.8686 16.5062L16.6964 20.2855L20.5242 16.501L20.5269 16.4984H20.5242Z" fill="#F3BA2F"/>
<path d="M39.2812 7.99707H47.4909C49.5275 7.99707 51.0681 8.51836 52.1128 9.56093C52.5064 9.94605 52.8167 10.4062 53.0248 10.9133C53.233 11.4205 53.3346 11.9642 53.3237 12.5114V12.5609C53.3307 13.0092 53.2676 13.4558 53.1364 13.885C53.0195 14.2544 52.8498 14.6055 52.6325 14.9276C52.4299 15.2313 52.1848 15.505 51.9044 15.7408C51.6305 15.9737 51.3304 16.1749 51.0101 16.3403C51.9338 16.6581 52.7645 17.1951 53.4292 17.9041C54.0166 18.5644 54.3103 19.4767 54.3103 20.6409V20.6904C54.327 21.4175 54.1669 22.1379 53.8434 22.7912C53.5299 23.3931 53.0704 23.9089 52.5059 24.2925C51.8677 24.7152 51.157 25.0199 50.4086 25.1917C49.5194 25.4 48.6079 25.5007 47.694 25.4914H39.2812V7.99707ZM46.6678 15.0709C47.3781 15.1048 48.085 14.9538 48.7176 14.633C48.9643 14.4907 49.1658 14.2829 49.2991 14.0332C49.4325 13.7835 49.4924 13.5019 49.4721 13.2204V13.1708C49.4852 12.9114 49.4318 12.6529 49.317 12.4192C49.2022 12.1855 49.0296 11.9841 48.8152 11.8337C48.3773 11.5262 47.745 11.3724 46.9185 11.3724H43.0774V15.0709H46.6678ZM47.7046 22.1213C48.4122 22.1605 49.1166 22.0005 49.7359 21.66C49.9772 21.5068 50.1724 21.2926 50.3014 21.0395C50.4304 20.7865 50.4884 20.5039 50.4693 20.2212V20.1717C50.4788 19.903 50.4215 19.6361 50.3024 19.3944C50.1832 19.1526 50.006 18.9434 49.786 18.7851C49.3323 18.4376 48.5989 18.2638 47.5859 18.2638H43.0774V22.1213H47.7046Z" fill="#F3BA2F"/>
<path d="M59.2031 7.99707H63.0995V25.4966H59.2031V7.99707Z" fill="#F3BA2F"/>
<path d="M68.9922 7.99707H72.5852L80.8899 18.7668V7.99707H84.7361V25.4966H81.4201L72.8438 14.3724V25.4966H68.9922V7.99707Z" fill="#F3BA2F"/>
<path d="M96.5338 7.87109H100.122L107.711 25.4958H103.643L102.024 21.5705H94.5341L92.9143 25.4958H88.9414L96.5338 7.87109ZM100.633 18.1717L98.2749 12.4949L95.927 18.1717H100.633Z" fill="#F3BA2F"/>
<path d="M111.926 7.99707H115.519L123.818 18.7668V7.99707H127.664V25.4966H124.348L115.772 14.3724V25.4966H111.926V7.99707Z" fill="#F3BA2F"/>
<path d="M141.687 25.8039C140.446 25.8144 139.214 25.5768 138.068 25.1054C136.989 24.665 136.009 24.0157 135.188 23.1956C134.367 22.3756 133.72 21.4013 133.285 20.3304C132.827 19.2102 132.595 18.0122 132.602 16.8039V16.7544C132.582 14.3727 133.509 12.0784 135.185 10.366C136.009 9.52954 136.996 8.86638 138.086 8.4164C139.273 7.93098 140.546 7.68889 141.83 7.70484C142.589 7.69924 143.347 7.76646 144.093 7.90554C144.732 8.02482 145.356 8.20912 145.956 8.45549C146.5 8.6819 147.018 8.96685 147.499 9.30519C147.969 9.63518 148.41 10.0031 148.818 10.4051L146.341 13.2305C145.708 12.6535 144.998 12.165 144.23 11.7787C143.477 11.4226 142.649 11.2441 141.814 11.2574C141.119 11.2501 140.43 11.389 139.793 11.6649C139.156 11.9408 138.586 12.3474 138.121 12.8578C137.659 13.3668 137.298 13.9563 137.055 14.5962C136.801 15.2725 136.673 15.9887 136.678 16.7101V16.7596C136.675 17.4799 136.803 18.1949 137.055 18.8708C137.295 19.513 137.652 20.1059 138.11 20.6197C138.572 21.1363 139.141 21.5489 139.778 21.8295C140.415 22.1101 141.106 22.2522 141.803 22.2461C142.692 22.2738 143.573 22.0849 144.37 21.6962C145.129 21.2876 145.831 20.7829 146.457 20.1949L148.937 22.671C148.499 23.1405 148.025 23.5762 147.52 23.9742C147.024 24.3619 146.485 24.6933 145.914 24.962C145.305 25.2451 144.663 25.4543 144.004 25.5849C143.241 25.736 142.465 25.8093 141.687 25.8039Z" fill="#F3BA2F"/>
<path d="M153.535 7.99707H166.865V11.4219H157.368V14.9719H165.731V18.3967H157.381V22.0718H166.997V25.4966H153.543L153.535 7.99707Z" fill="#F3BA2F"/>
</g>
<defs>
<clipPath id="clip0_1_1040">
<rect width="167" height="33" fill="white"/>
</clipPath>
</defs>
</svg>
