<svg width="191" height="22" viewBox="0 0 191 22" fill="none" xmlns="http://www.w3.org/2000/svg">
<path d="M168.858 14.3378C168.667 11.29 169.98 7.89946 172.673 5.26899C178.541 -0.461401 190.764 0.343388 190.833 0.343388C190.802 0.388099 181.867 13.0412 171.277 14.226C170.46 14.3229 169.652 14.3527 168.858 14.3378Z" fill="#03CA9B"/>
<path d="M170.098 18.2344C170.403 18.7039 170.761 19.1435 171.174 19.5459C174.798 23.0855 181.344 22.4298 185.793 18.0779C191.676 12.3326 190.836 0.342773 190.836 0.342773C190.806 0.409839 184.396 14.434 174.226 17.4893C172.837 17.9065 171.448 18.1525 170.098 18.2344Z" fill="#03CA9B"/>
<path d="M13.3516 18.6597H4.11162V13.354H13.3516C15.6636 13.354 16.8386 14.5463 16.8386 16.0888C16.8386 17.5717 15.6864 18.6597 13.3516 18.6597ZM13.0541 10.5075H4.11162V6.03642H13.0464C15.4804 6.03642 16.4342 6.96044 16.4342 8.22724C16.4418 9.39716 15.3355 10.5075 13.0541 10.5075ZM15.4118 11.8637C19.3031 11.7296 20.707 9.64307 20.707 7.37029C20.707 4.8814 18.8758 2.81727 14.4046 2.81727H0.121094V21.8267H14.8319C18.4943 21.8267 21.2335 20.1724 21.2335 16.6254C21.2335 14.1067 19.7075 11.968 15.4118 11.8637ZM25.9489 2.81727V21.8267H29.9394V2.81727H25.9489ZM46.1304 6.41646H54.9203V2.81727H33.3501V6.41646H42.1399V21.8267H46.1304V6.41646ZM58.3233 2.81727V21.8267H62.3138V14.4047H71.6759V11.2899H62.3215V6.08858H77.5358V2.80981L58.3233 2.81727ZM80.7634 2.81727V21.8267H84.7539V2.81727H80.7634ZM94.116 7.4448L107.347 21.8267H111.864V2.81727H107.919V16.521L95.2223 2.81727H90.1483V21.8267H94.116V7.4448ZM117.258 2.81727V21.8267H136.791V18.6299H121.249V13.4062H130.565V10.4553H121.249V6.08858H136.791V2.80981L117.258 2.81727ZM163.527 2.81727H158.254L151.525 9.50894L144.848 2.81727H139.5L148.892 12.1841L139.149 21.8267H144.421L151.479 14.8146L158.506 21.8267H163.878L154.111 12.1618L163.527 2.81727Z" fill="#102331"/>
</svg>
