<svg width="149" height="33" viewBox="0 0 149 33" fill="none" xmlns="http://www.w3.org/2000/svg">
<g clip-path="url(#clip0_1_1087)">
<path d="M30.3518 7.35617C25.0048 7.35617 20.8212 11.3055 20.8212 16.6033C20.8212 21.9011 24.9057 25.8263 30.3518 25.8263C35.8227 25.8263 39.9568 21.8289 39.9568 16.5792C39.9815 11.3295 35.8969 7.35617 30.3518 7.35617ZM30.4013 21.9974C27.3565 21.9974 25.1285 19.6857 25.1285 16.6033C25.1285 13.4727 27.3317 11.1851 30.3766 11.1851C33.471 11.1851 35.6989 13.5209 35.6989 16.6033C35.6742 19.6857 33.4462 21.9974 30.4013 21.9974ZM41.145 11.3777H43.7938V25.4651H48.0517V7.6933H41.145V11.3777ZM10.127 11.161C12.355 11.161 14.1373 12.5095 14.8057 14.4842H19.3111C18.4942 10.2218 14.88 7.33209 10.1765 7.33209C4.80469 7.35617 0.621094 11.3055 0.621094 16.6033C0.621094 21.9011 4.70567 25.8263 10.1518 25.8263C14.7562 25.8263 18.4447 22.9366 19.2616 18.6502H14.8057C14.1621 20.6489 12.4045 22.0215 10.1518 22.0215C7.05739 22.0215 4.90371 19.7097 4.90371 16.6274C4.90371 13.4727 7.03264 11.161 10.127 11.161ZM121.97 14.8695L118.851 14.4119C117.366 14.1952 116.301 13.7136 116.301 12.5818C116.301 11.3536 117.687 10.7275 119.569 10.7275C121.623 10.7275 122.935 11.5944 123.233 12.9911H127.342C126.872 9.42714 124.049 7.33209 119.693 7.33209C115.187 7.33209 112.217 9.57162 112.217 12.7262C112.217 15.7604 114.172 17.4943 118.108 18.0481L121.227 18.5057C122.762 18.7224 123.604 19.3004 123.604 20.4081C123.604 21.8289 122.119 22.4068 120.064 22.4068C117.539 22.4068 116.128 21.4195 115.905 19.9024H111.721C112.118 23.3701 114.915 25.8022 120.014 25.8022C124.668 25.8022 127.738 23.7313 127.738 20.1914C127.713 17.0367 125.461 15.3992 121.97 14.8695ZM45.9227 0.372672C44.3632 0.372672 43.1997 1.4804 43.1997 2.97342C43.1997 4.49052 44.3632 5.57417 45.9227 5.57417C47.4823 5.57417 48.6458 4.46644 48.6458 2.97342C48.6458 1.4804 47.4823 0.372672 45.9227 0.372672ZM108.355 13.7858C108.355 9.93284 105.954 7.35617 100.829 7.35617C96.0021 7.35617 93.3038 9.74019 92.7839 13.3764H96.9923C97.215 11.9556 98.329 10.7998 100.755 10.7998C102.909 10.7998 103.973 11.7389 103.973 12.8707C103.973 14.3397 102.018 14.725 99.6163 14.9658C96.3486 15.3029 92.3136 16.4106 92.3136 20.5285C92.3136 23.7313 94.7643 25.7782 98.6508 25.7782C101.696 25.7782 103.602 24.55 104.567 22.5754C104.716 24.3333 106.053 25.4651 107.934 25.4651H110.409V21.7807H108.305L108.355 13.7858ZM104.171 18.2408C104.171 20.6248 102.042 22.3586 99.4678 22.3586C97.8834 22.3586 96.5219 21.7085 96.5219 20.3358C96.5219 18.5779 98.6756 18.0963 100.681 17.9037C102.587 17.7351 103.651 17.3257 104.196 16.531C104.171 16.531 104.171 18.2408 104.171 18.2408ZM81.5947 7.35617C79.2182 7.35617 77.2378 8.31941 75.8267 9.93284V0.204102H71.5689V25.4651H75.7525V23.1292C77.1635 24.8149 79.1934 25.8022 81.5947 25.8022C86.6942 25.8022 90.556 21.877 90.556 16.5792C90.556 11.2814 86.6199 7.35617 81.5947 7.35617ZM80.951 21.9974C77.9062 21.9974 75.6782 19.6857 75.6782 16.6033C75.6782 13.5209 77.9557 11.1851 81.0005 11.1851C84.0949 11.1851 86.2486 13.4968 86.2486 16.6033C86.2238 19.6857 83.9959 21.9974 80.951 21.9974ZM61.3698 7.35617C58.5973 7.35617 56.7902 8.4639 55.7257 10.0051V7.6933H51.5173V25.4651H55.7752V15.8086C55.7752 13.0875 57.5576 11.161 60.1816 11.161C62.6323 11.161 64.1424 12.8466 64.1424 15.2788V25.4651H68.4002V14.9899C68.4002 10.5108 66.0238 7.35617 61.3698 7.35617ZM147.988 16.0013C147.988 10.9202 144.151 7.33209 139.026 7.33209C133.555 7.33209 129.57 11.3295 129.57 16.5792C129.57 22.1178 133.852 25.8022 139.1 25.8022C143.532 25.8022 146.997 23.2496 147.889 19.6616H143.457C142.814 21.2509 141.254 22.1419 139.175 22.1419C136.452 22.1419 134.397 20.4803 133.927 17.6147H148.012L147.988 16.0013ZM134.15 14.6286C134.818 12.1483 136.749 10.9442 138.927 10.9442C141.328 10.9442 143.185 12.2928 143.606 14.6286H134.15Z" fill="#0052FF"/>
</g>
<defs>
<clipPath id="clip0_1_1087">
<rect width="148" height="33" fill="white" transform="translate(0.5)"/>
</clipPath>
</defs>
</svg>
