<svg width="16" height="16" viewBox="0 0 16 16" fill="none" xmlns="http://www.w3.org/2000/svg">
<path d="M13.7419 3.55297C12.813 3.13974 11.8072 2.83982 10.7596 2.66653C10.7504 2.66625 10.7413 2.6679 10.7328 2.67135C10.7244 2.67481 10.7168 2.67999 10.7107 2.68653C10.585 2.90647 10.4383 3.19306 10.3405 3.41301C9.22931 3.25305 8.09925 3.25305 6.98805 3.41301C6.89027 3.1864 6.7436 2.90647 6.61089 2.68653C6.60391 2.6732 6.58296 2.66653 6.562 2.66653C5.51436 2.83982 4.5156 3.13974 3.5797 3.55297C3.57272 3.55297 3.56573 3.55963 3.55875 3.5663C1.65901 6.27892 1.13519 8.91823 1.39361 11.5309C1.39361 11.5442 1.40059 11.5575 1.41456 11.5642C2.67174 12.444 3.88003 12.9772 5.07434 13.3304C5.0953 13.3371 5.11625 13.3304 5.12323 13.3171C5.40261 12.9505 5.65404 12.5639 5.87056 12.1574C5.88452 12.1307 5.87056 12.1041 5.84262 12.0974C5.44451 11.9508 5.06736 11.7775 4.69719 11.5775C4.66925 11.5642 4.66925 11.5242 4.69021 11.5042C4.76703 11.4509 4.84386 11.3909 4.92069 11.3376C4.93466 11.3243 4.95561 11.3243 4.96958 11.3309C7.37218 12.3773 9.96337 12.3773 12.338 11.3309C12.352 11.3243 12.373 11.3243 12.3869 11.3376C12.4638 11.3976 12.5406 11.4509 12.6174 11.5109C12.6453 11.5309 12.6453 11.5709 12.6104 11.5842C12.2472 11.7908 11.8631 11.9574 11.465 12.1041C11.4371 12.1107 11.4301 12.1441 11.4371 12.164C11.6606 12.5706 11.912 12.9572 12.1844 13.3237C12.2053 13.3304 12.2263 13.3371 12.2472 13.3304C13.4485 12.9772 14.6568 12.444 15.914 11.5642C15.928 11.5575 15.935 11.5442 15.935 11.5309C16.2423 8.51167 15.4251 5.89236 13.7698 3.5663C13.7628 3.55963 13.7559 3.55297 13.7419 3.55297ZM6.23374 9.93796C5.51436 9.93796 4.9137 9.3048 4.9137 8.525C4.9137 7.7452 5.50039 7.11204 6.23374 7.11204C6.97408 7.11204 7.56076 7.75187 7.55378 8.525C7.55378 9.3048 6.96709 9.93796 6.23374 9.93796ZM11.1018 9.93796C10.3824 9.93796 9.78177 9.3048 9.78177 8.525C9.78177 7.7452 10.3685 7.11204 11.1018 7.11204C11.8421 7.11204 12.4288 7.75187 12.4218 8.525C12.4218 9.3048 11.8421 9.93796 11.1018 9.93796Z" fill="#F6F6F6"/>
</svg>
