<svg width="92" height="33" viewBox="0 0 92 33" fill="none" xmlns="http://www.w3.org/2000/svg">
<path d="M13.8386 22.7671C9.76257 22.7671 6.47347 19.6161 6.47347 15.7113C6.47347 11.8065 9.76257 8.66197 13.8386 8.66197V2.86914C6.40621 2.86914 0.359375 8.66197 0.359375 15.7822C0.359375 22.9024 6.40621 28.6952 13.8386 28.6952C21.2711 28.6952 27.3179 22.9024 27.3179 15.7822H21.2711C21.2711 19.687 17.982 22.838 13.9059 22.838L13.8386 22.7671Z" fill="#2F56DD"/>
<path d="M21.2655 8.66211H13.8398V15.7759H21.2655V8.66211Z" fill="#6BE1A5"/>
<path d="M71.4204 7.27649H68.3331V10.4854H66.4296V13.2562H68.3331V20.6213C68.3331 21.3172 68.4003 21.8778 68.6627 22.5092C68.8577 22.9474 69.12 23.3276 69.5169 23.7078C69.9137 24.0235 70.3038 24.2748 70.768 24.4037C71.2926 24.5325 71.8845 24.5905 72.4091 24.5905C72.9338 24.5905 73.4584 24.5261 73.9898 24.4037C74.3866 24.2748 74.844 24.1524 75.2409 23.9011V21.6329C74.649 21.8198 74.0571 22.0131 73.3979 22.0131C72.8732 22.0775 72.3486 21.8842 71.9518 21.5105C71.5549 21.1303 71.3599 20.5633 71.4271 20.0607V13.2626H75.2409V10.4919H71.4271L71.4944 7.28293H71.4204V7.27649Z" fill="black"/>
<path d="M40.2011 14.6481V17.9215H44.8691C44.2772 20.3121 41.9769 22.0132 39.4142 21.9488C36.1251 22.0776 33.3001 19.6806 33.1723 16.5297C33.0445 13.3787 35.5399 10.6724 38.829 10.55C39.0241 10.55 39.2258 10.55 39.4209 10.55C41.1294 10.55 42.7705 11.2459 43.8938 12.5024L46.591 10.4211C43.2414 6.64513 37.3223 6.13608 33.3808 9.41589C29.4191 12.6313 28.8944 18.3017 32.3113 22.0776C35.661 25.8536 41.58 26.3626 45.5216 23.0828C45.6561 22.954 45.8511 22.8315 45.9789 22.7027C47.4251 21.2528 48.3465 19.4293 48.4743 17.4124C48.5416 16.4652 48.6089 15.5245 48.5416 14.5772H40.2617L40.2011 14.6481Z" fill="black"/>
<path d="M83.7829 10.0469C79.579 10.0469 76.2227 13.2558 76.2227 17.2895C76.2227 21.3232 79.5723 24.5322 83.7829 24.5322C86.5406 24.5322 89.11 23.0823 90.4216 20.7562L87.5966 19.4997C86.3456 21.5165 83.5878 22.206 81.4825 21.0139C80.4938 20.4469 79.7068 19.4997 79.4445 18.43H91.2758C91.935 14.4608 89.1033 10.7492 84.9667 10.1822C84.5698 10.1178 84.1797 10.0533 83.8501 10.1178L83.7829 10.0469ZM79.579 15.7817C80.4332 13.578 82.9959 12.4439 85.2963 13.2622C86.4801 13.7004 87.4688 14.6476 87.9262 15.7817H79.579Z" fill="black"/>
<path d="M61.6314 11.4972C58.2817 9.10665 53.4792 9.79612 51.0511 13.0695C48.6229 16.3429 49.2686 20.8792 52.6923 23.2118C55.3895 25.0998 59.0014 25.0998 61.6314 23.2118V24.217H64.7187V10.55H61.6314L61.5641 11.5552L61.6314 11.4972ZM57.1585 21.6395C54.7236 21.6395 52.6855 19.7515 52.6855 17.3545C52.6855 15.0219 54.6563 13.0695 57.1585 13.0695C59.5933 13.0695 61.6314 14.9575 61.6314 17.3545C61.6314 19.7515 59.6606 21.6975 57.1585 21.6975V21.6395Z" fill="black"/>
</svg>
