<svg width="143" height="23" viewBox="0 0 143 23" fill="none" xmlns="http://www.w3.org/2000/svg">
<path d="M14.1348 0.769105C16.5808 0.610319 19.0721 1.08668 21.264 2.15985C24.5122 3.70939 27.0996 6.49088 28.2972 9.77611C28.8395 11.238 29.1219 12.7602 29.1219 14.3152V20.037C29.1219 20.2669 29.1219 20.5133 29.0768 20.7433C28.9355 21.3127 28.5118 21.8384 27.9469 22.0902C27.5458 22.2709 27.0996 22.2928 26.6985 22.2271C25.8059 22.0683 25.0998 21.247 25.0998 20.36C25.0998 18.5805 25.0998 16.801 25.0998 15.027C25.1223 14.5233 25.1223 13.9757 24.8399 13.5432C24.3936 12.7219 23.2638 12.3331 22.3938 12.6781C21.6425 12.9299 21.1002 13.6801 21.0776 14.4576C21.0776 16.259 21.0776 18.0604 21.0776 19.8618C21.0776 20.2012 21.1002 20.5462 20.9815 20.8638C20.7951 21.5044 20.2528 22.0026 19.5918 22.1833C18.7219 22.4133 17.7333 22.0464 17.3096 21.2689C17.0045 20.8145 17.0271 20.245 17.0497 19.7194C17.0497 17.918 17.0497 16.1385 17.0497 14.3371C17.0271 13.4227 16.2475 12.6069 15.3324 12.4919C14.7223 12.3988 14.0839 12.6069 13.6376 13.0175C13.2365 13.3844 13.0275 13.9045 13.0275 14.4302V19.6537C13.0275 20.0863 13.0727 20.5407 12.9089 20.9514C12.649 21.7015 11.8751 22.249 11.0503 22.2271C10.2029 22.2709 9.37817 21.7015 9.12396 20.9514C8.98273 20.5626 9.00533 20.1739 9.00533 19.7632C9.00533 17.9618 9.00533 16.1604 9.00533 14.359C9.00533 13.472 8.27659 12.6507 7.38402 12.4919C6.55924 12.3331 5.66668 12.7219 5.24299 13.4501C5.07917 13.7458 4.98313 14.0907 4.98313 14.4302V20.2888C4.98313 20.8583 4.72327 21.4277 4.27699 21.7946C3.59344 22.364 2.49186 22.4078 1.78571 21.8877C1.26599 21.5427 0.960938 20.9459 0.960938 20.3326V14.4028C0.960938 12.1688 1.54845 9.93489 2.65568 7.95281C3.54825 6.33209 4.79671 4.89754 6.27679 3.75866C8.46866 1.97916 11.265 0.933367 14.1348 0.769105Z" fill="#5741D9"/>
<path d="M69.0968 7.63538H66.0406C66.1592 5.56021 66.6055 3.6931 68.5601 2.50495C70.5147 1.34417 72.6501 1.0704 74.8871 1.25108C76.0848 1.34417 77.288 1.59056 78.3896 2.09429C80.3442 2.9594 81.3046 4.44323 81.3046 6.5184C81.3046 10.1869 81.3046 13.8609 81.3046 17.5294C81.3046 18.8763 81.587 19.1227 82.9767 18.9858C83.118 18.9639 83.2818 18.942 83.423 18.9201C83.4456 18.9858 83.4456 19.057 83.4456 19.1008V21.3348C82.3384 21.7016 81.2085 21.8111 80.107 21.5155C79.2822 21.2855 78.7681 20.7161 78.4857 19.9659C78.3444 19.5772 78.2484 19.1665 78.1354 18.734C78.0168 18.8709 77.9264 18.9858 77.8078 19.1008C75.3843 21.4717 72.5145 22.4737 69.1307 21.6305C66.7298 21.0391 65.0859 18.9201 65.0124 16.5C64.9898 15.7225 65.0576 14.9505 65.2497 14.1949C65.696 12.4647 66.967 11.4134 68.5658 10.7071C69.6956 10.2033 70.9158 10.0664 72.1417 9.90766C73.5765 9.72698 74.9888 9.56819 76.4237 9.36012C77.3897 9.22324 77.8812 8.71951 78.0224 7.78869C78.3275 5.89421 77.4575 4.64035 75.5763 4.18589C74.4465 3.91212 73.2941 3.86832 72.1417 4.07091C70.4469 4.36658 69.5092 5.30287 69.1759 6.9181C69.1928 7.15355 69.1476 7.38351 69.0968 7.63538ZM78.1072 11.282C76.6949 12.0102 75.3334 12.1964 73.9437 12.399C72.7913 12.5796 71.6163 12.7439 70.4865 13.0834C69.0064 13.5597 68.3228 14.7479 68.4641 16.3412C68.5827 17.6608 69.4979 18.734 70.9836 18.9639C73.2658 19.3308 75.2882 18.7121 76.8869 17.0695C77.3558 16.5931 77.7343 15.9087 77.8304 15.2681C78.0394 13.9923 78.0111 12.6946 78.1072 11.282ZM121.69 15.1093C121.623 15.4268 121.572 15.7006 121.504 15.9525C120.188 19.851 117.504 21.5155 114.262 21.8823C108.641 22.4737 105.421 18.9201 104.596 15.1367C103.935 12.1252 104.031 9.14111 105.398 6.31581C106.692 3.6493 108.759 1.8917 111.844 1.37154C115.538 0.730923 120.758 2.51042 121.628 8.09531C121.865 9.52986 121.911 11.0137 122.052 12.5194H107.754C107.873 14.5727 108.2 16.4836 109.754 17.9674C110.386 18.5807 111.211 18.8818 112.104 19.0406C114.996 19.5443 117.397 18.1974 118.335 15.4816C118.431 15.1859 118.572 15.0928 118.877 15.1148C119.787 15.1093 120.702 15.1093 121.69 15.1093ZM107.861 9.86934H118.561C118.442 8.65928 118.233 7.5423 117.646 6.4965C117.081 5.4945 116.256 4.76628 115.126 4.39943C111.437 3.16747 107.624 6.01467 107.861 9.86934ZM129.384 21.2198H126.136V1.66174H129.215V4.39943C129.452 4.14756 129.594 3.98878 129.735 3.82999C131.944 1.38797 134.723 0.752824 137.875 1.50295C140.061 2.02859 141.287 3.53432 141.711 5.63139C141.875 6.4965 141.993 7.38899 141.993 8.2541C142.016 12.4482 142.016 16.6424 142.016 20.8365C142.016 20.9515 141.993 21.0665 141.993 21.2034H138.677V20.6723C138.677 16.7519 138.7 12.8315 138.655 8.91114C138.655 8.04603 138.514 7.15355 138.254 6.31034C137.83 4.94149 136.7 4.21327 135.22 4.14209C132.514 4.049 130.373 5.43975 129.718 7.76679C129.481 8.61 129.413 9.49701 129.413 10.3895C129.39 13.8335 129.39 17.2502 129.39 20.6504V21.2198H129.384ZM86.5978 1.66174H89.7275V9.96242C89.9139 9.78173 90.0325 9.68865 90.1511 9.57366C92.7159 7.04404 95.2806 4.48704 97.8453 1.95741C98.0543 1.72744 98.269 1.63984 98.5966 1.63984C99.7943 1.66174 101.02 1.63984 102.336 1.63984C102.15 1.82052 102.054 1.93551 101.935 2.05049C99.6756 4.24064 97.4442 6.4527 95.1619 8.61547C94.9021 8.86734 94.9021 9.02613 95.0659 9.2999C97.5346 13.1053 99.9807 16.9162 102.427 20.7215C102.523 20.8584 102.591 20.9953 102.709 21.1979C102.545 21.2198 102.427 21.2198 102.286 21.2198C101.156 21.2198 100.048 21.2198 98.9243 21.2198C98.6192 21.2198 98.478 21.1048 98.3142 20.8803C96.433 17.8251 94.5518 14.7698 92.6707 11.6926C92.5746 11.5558 92.5068 11.4189 92.3882 11.2601C91.5182 12.1033 90.6709 12.9027 89.8235 13.7459C89.7049 13.8609 89.6823 14.0635 89.6823 14.2223C89.6823 16.3631 89.6823 18.5095 89.6823 20.6504V21.1979C89.0722 21.1979 88.4564 21.1979 87.8689 21.1979C87.4452 21.1979 86.8577 21.3129 86.6204 21.0829C86.4114 20.9022 86.5244 20.3054 86.5244 19.8948V2.18737C86.5978 2.07239 86.5978 1.8917 86.5978 1.66174ZM50.4941 1.63984C47.952 4.08186 45.4833 6.4746 42.992 8.86734C45.6697 13.0122 48.2853 17.0695 50.9404 21.2198C50.7314 21.2198 50.5902 21.2417 50.4489 21.2417C49.3699 21.2417 48.2627 21.2417 47.1781 21.2417C46.873 21.2417 46.6866 21.1267 46.5171 20.8749C44.636 17.8251 42.7548 14.7698 40.8736 11.6926C40.8058 11.5558 40.7098 11.4408 40.5912 11.2601C40.1223 11.7364 39.6986 12.2621 39.1789 12.6289C38.1225 13.4064 37.8174 14.3591 37.8852 15.6404C38.0039 17.3049 37.9078 18.9913 37.9078 20.6558V21.2034H34.8008V1.66174H37.9078V9.82553C37.9756 9.86934 38.049 9.91861 38.0942 9.96242C38.1903 9.82553 38.2355 9.66675 38.3315 9.55176C40.8736 7.02214 43.4383 4.51441 45.9748 1.96288C46.2121 1.73292 46.4211 1.62341 46.777 1.64531C47.8334 1.66721 48.8954 1.64531 49.9518 1.64531C50.1156 1.63984 50.2569 1.63984 50.4941 1.63984ZM56.7025 4.89769C58.2786 2.66373 59.9508 0.796627 63.0522 1.33869V4.68962C62.2274 4.73343 61.4026 4.71153 60.6287 4.87031C58.7249 5.25906 57.2392 6.94548 56.9342 8.99875C56.889 9.4094 56.8381 9.82006 56.8381 10.2307C56.8381 13.7185 56.8381 17.2063 56.8381 20.6942V21.2417H53.6407V1.70554H56.6969C56.7025 2.73491 56.7025 3.75881 56.7025 4.89769Z" fill="#5741D9"/>
</svg>
