<svg width="134" height="33" viewBox="0 0 134 33" fill="none" xmlns="http://www.w3.org/2000/svg">
<path d="M104.736 16.5051C104.736 15.7375 104.736 15.0116 104.709 14.3432C104.693 13.7114 104.629 13.0847 104.518 12.4633C104.417 11.8941 104.236 11.3458 103.98 10.8236C103.714 10.2858 103.353 9.80014 102.922 9.38239C102.305 8.7662 101.576 8.27012 100.768 7.92547C99.8952 7.57561 98.959 7.40328 98.0175 7.41895C97.0707 7.4085 96.1345 7.58083 95.2568 7.92547C94.443 8.2649 93.7089 8.75576 93.0919 9.37717C92.6611 9.79492 92.3047 10.2858 92.0387 10.8184C91.7887 11.3406 91.6079 11.8889 91.5121 12.4581C91.4057 13.0795 91.3419 13.7061 91.3313 14.338C91.3153 15.0064 91.3047 15.7322 91.31 16.4999C91.3153 17.2675 91.31 17.9881 91.3313 18.6617C91.3472 19.2936 91.4057 19.9202 91.5121 20.5416C91.6132 21.1108 91.7887 21.6591 92.0387 22.1813C92.3047 22.7139 92.6611 23.2048 93.0919 23.6225C93.7089 24.2387 94.4483 24.7348 95.2568 25.069C96.1345 25.4189 97.076 25.5912 98.0175 25.5808C98.959 25.5964 99.8952 25.4189 100.768 25.069C101.576 24.7296 102.305 24.2387 102.922 23.6225C103.353 23.2048 103.714 22.7139 103.98 22.1813C104.236 21.6591 104.417 21.1108 104.518 20.5416C104.624 19.9202 104.688 19.2936 104.704 18.6669C104.73 17.9881 104.741 17.2675 104.736 16.5051ZM101.182 16.5051C101.182 17.3562 101.172 18.0664 101.14 18.6304C101.124 19.0951 101.076 19.5547 100.996 20.0142C100.943 20.3171 100.847 20.6147 100.714 20.8967C100.603 21.1212 100.464 21.3301 100.294 21.5129C100.028 21.8105 99.6984 22.0455 99.3314 22.2074C98.9165 22.3797 98.4697 22.4685 98.0175 22.4685C97.5654 22.4685 97.1133 22.3797 96.6984 22.2074C96.3207 22.0507 95.9856 21.8158 95.709 21.5129C95.5388 21.3301 95.3951 21.1212 95.2888 20.8967C95.1558 20.6147 95.0707 20.3223 95.0228 20.0142C94.9483 19.5547 94.9005 19.0951 94.8792 18.6304C94.8526 18.0664 94.8419 17.3562 94.8419 16.5051C94.8419 15.6539 94.8526 14.9437 94.8792 14.3745C94.9005 13.9098 94.943 13.4503 95.0228 12.9907C95.0707 12.6879 95.1611 12.3902 95.2888 12.1082C95.3951 11.8837 95.5388 11.6748 95.709 11.492C95.9803 11.1944 96.3207 10.9542 96.6984 10.7975C97.1133 10.62 97.5654 10.5312 98.0175 10.5364C98.4697 10.5312 98.9165 10.62 99.3314 10.7975C99.6984 10.9542 100.028 11.1944 100.294 11.492C100.464 11.6748 100.608 11.8837 100.714 12.1082C100.847 12.3902 100.943 12.6826 100.996 12.9907C101.071 13.4503 101.119 13.9098 101.14 14.3745C101.172 14.9385 101.182 15.6487 101.182 16.5051Z" fill="#23AF91"/>
<path d="M133.042 7.87743C133.042 7.71033 132.904 7.57456 132.728 7.56934H129.797C129.627 7.56934 129.489 7.70511 129.483 7.87743V18.504L122.334 7.65289C122.286 7.57978 122.244 7.56934 122.137 7.56934H119.419C119.249 7.56934 119.111 7.70511 119.105 7.87743V25.1254C119.105 25.2925 119.244 25.4283 119.419 25.4283H122.35C122.52 25.4283 122.659 25.2925 122.659 25.1254V14.4675L129.813 25.3395C129.861 25.4126 129.903 25.423 130.01 25.423H132.728C132.898 25.423 133.037 25.2873 133.042 25.1202V7.87743Z" fill="#23AF91"/>
<path d="M113.398 7.87743C113.398 7.71033 113.26 7.57456 113.085 7.56934H110.154C109.983 7.56934 109.845 7.70511 109.84 7.87743V25.1254C109.84 25.2925 109.978 25.4283 110.154 25.4335H113.085C113.255 25.4335 113.393 25.2977 113.398 25.1254V7.87743Z" fill="#23AF91"/>
<path d="M78.3487 16.5052C78.3487 15.6488 78.3593 14.9334 78.3859 14.3642C78.4019 13.8994 78.4498 13.4399 78.5296 12.9804C78.8008 11.4451 79.9977 10.5365 81.5296 10.5365C82.5296 10.547 83.4339 10.9073 84.0084 11.7323C84.269 12.1188 84.4605 12.547 84.5722 12.996C84.5828 13.043 84.6254 13.0744 84.6733 13.0744H88.1201C88.168 13.0744 88.1893 13.043 88.1786 12.996C87.801 10.902 86.6627 9.02216 84.652 8.08744C83.6626 7.63835 82.5828 7.41381 81.4977 7.42948C79.5562 7.42948 77.9232 8.08222 76.5934 9.3877C75.8327 10.1135 75.3167 11.0483 75.1093 12.0665C74.9072 13.0691 74.8061 14.5522 74.8008 16.5052C74.8008 18.4634 74.9018 19.9412 75.1093 20.9438C75.3167 21.9673 75.8327 22.902 76.5934 23.6279C77.9232 24.9333 79.5562 25.5808 81.4977 25.5808C82.5881 25.5965 83.6626 25.372 84.652 24.9229C86.6627 23.9934 87.801 22.1083 88.1786 20.0143C88.1893 19.9673 88.168 19.936 88.1201 19.936H84.6733C84.6254 19.9307 84.5775 19.9621 84.5722 20.0143C84.4605 20.4634 84.269 20.8916 84.0084 21.2728C83.4286 22.1031 82.5243 22.4634 81.5296 22.4686C79.9977 22.4686 78.8008 21.5652 78.5296 20.0247C78.4551 19.5652 78.4072 19.1057 78.3859 18.6409C78.3593 18.0717 78.3487 17.3563 78.3487 16.5052Z" fill="#23AF91"/>
<path d="M41.9321 7.87743C41.9321 7.71033 41.7938 7.57456 41.6183 7.56934H38.6927C38.5225 7.56934 38.3842 7.70511 38.3789 7.87743V25.1254C38.3789 25.2925 38.5172 25.4283 38.6927 25.4283H41.6236C41.7938 25.4283 41.9321 25.2925 41.9375 25.1254V20.0602L44.2886 17.303L49.1131 25.3395C49.1503 25.3969 49.2195 25.4335 49.2886 25.4335H52.8472C53.0121 25.4335 53.0387 25.3343 52.9589 25.1985L46.6343 14.6764L52.4323 7.8461C52.5493 7.70511 52.5014 7.57456 52.3153 7.57456H48.4269C48.379 7.56934 48.3365 7.59022 48.3046 7.632L41.9321 15.1359V7.87743Z" fill="#23AF91"/>
<path d="M63.2711 22.4675C61.6222 22.4675 60.1275 20.9688 60.1275 19.1829V7.87743C60.1275 7.71033 59.9892 7.57456 59.8136 7.56934H56.8881C56.7178 7.56934 56.5795 7.70511 56.5742 7.87743V19.1411C56.5742 23.0784 59.5743 25.5797 63.2658 25.5797C66.9573 25.5797 69.9574 23.0784 69.9574 19.1411V7.87743C69.9574 7.71033 69.8191 7.57456 69.6436 7.56934H66.7127C66.5424 7.56934 66.4041 7.70511 66.4041 7.87743V19.1829C66.4148 20.9688 64.9148 22.4675 63.2711 22.4675Z" fill="#23AF91"/>
<path fill-rule="evenodd" clip-rule="evenodd" d="M8.95026 16.505L18.0408 25.4293L23.7803 19.7948C24.8069 18.8862 26.376 18.928 27.3495 19.8888C28.3229 20.8496 28.3654 22.3901 27.4452 23.3979L19.8759 30.8287C18.86 31.8104 17.227 31.8104 16.211 30.8287L5.28531 20.1029V26.4789C5.28531 27.8836 4.12572 29.0272 2.68953 29.0272C1.25866 29.0272 0.09375 27.8888 0.09375 26.4789V6.52071C0.09375 5.11602 1.25334 3.97242 2.68953 3.97242C4.12572 3.97242 5.28531 5.1108 5.28531 6.52071V12.8967L16.2057 2.17086C17.2216 1.18914 18.8547 1.18914 19.8706 2.17086L27.4505 9.60686C28.3761 10.6147 28.3335 12.1552 27.3548 13.116C26.376 14.0768 24.8069 14.1134 23.7856 13.21L18.0461 7.57032L8.95026 16.505ZM18.0461 13.9515C16.9929 13.9515 16.0461 14.5729 15.6472 15.5233C15.2429 16.4789 15.4663 17.5755 16.211 18.3013C16.9557 19.0324 18.0727 19.2517 19.0408 18.8549C20.0142 18.458 20.6472 17.5285 20.6472 16.4998C20.6472 15.8209 20.3759 15.1734 19.8866 14.6982C19.3972 14.2178 18.7376 13.9515 18.0461 13.9515Z" fill="#23AF91"/>
</svg>
