<svg width="67" height="33" viewBox="0 0 67 33" fill="none" xmlns="http://www.w3.org/2000/svg">
<path d="M19.9604 7.33975C20.0442 7.39501 20.1 7.50554 20.1 7.61608V25.4116C20.1 25.5222 20.0442 25.6327 19.9604 25.688C19.8786 25.7697 19.7693 25.8188 19.6533 25.8261H0.446667C0.330666 25.8188 0.221398 25.7697 0.139583 25.688C0.0983865 25.6539 0.0647304 25.6117 0.0407147 25.5642C0.0166991 25.5166 0.00283926 25.4647 0 25.4116L0 7.61608C0 7.50554 0.0558333 7.39501 0.139583 7.33975C0.221398 7.25803 0.330666 7.20886 0.446667 7.20158H19.6533C19.765 7.20158 19.8767 7.25685 19.9604 7.33975ZM13.4 13.8335C13.3972 13.7804 13.3833 13.7285 13.3593 13.6809C13.3353 13.6334 13.3016 13.5912 13.2604 13.5571C13.1802 13.4731 13.07 13.4235 12.9533 13.419H7.14667C7.03431 13.4187 6.9255 13.4578 6.83958 13.5295C6.79839 13.5636 6.76473 13.6057 6.74072 13.6533C6.7167 13.7008 6.70284 13.7528 6.7 13.8058V19.1942C6.7 19.3048 6.75583 19.4153 6.83958 19.4706C6.92333 19.5811 7.035 19.6087 7.14667 19.6087H12.9533C13.065 19.6087 13.1767 19.5811 13.2604 19.4982C13.3016 19.4641 13.3353 19.422 13.3593 19.3744C13.3833 19.3269 13.3972 19.275 13.4 19.2219V13.8335ZM60.3 13.8335V19.1942C60.3 19.4429 60.1046 19.6087 59.8533 19.6087H54.0467C53.7954 19.6087 53.6 19.4429 53.6 19.1942V13.8335C53.6 13.6124 53.7954 13.419 54.0467 13.419H59.8533C60.1046 13.419 60.3 13.5848 60.3 13.8335ZM53.6 7.61608V13.0045C53.6 13.2255 53.4046 13.419 53.1533 13.419H47.3467C47.0954 13.419 46.9 13.2255 46.9 13.0045V7.61608C46.9 7.39501 47.0954 7.20158 47.3467 7.20158H53.1533C53.4046 7.20158 53.6 7.39501 53.6 7.61608ZM67 7.61608V13.0045C67 13.2255 66.8046 13.419 66.5533 13.419H60.7467C60.4954 13.419 60.3 13.2255 60.3 13.0045V7.61608C60.3 7.39501 60.4954 7.20158 60.7467 7.20158H66.5533C66.8046 7.20158 67 7.39501 67 7.61608ZM53.6 20.0509V25.4116C53.6 25.6327 53.4046 25.8261 53.1533 25.8261H47.3467C47.0954 25.8261 46.9 25.6327 46.9 25.4116V20.0232C46.9 19.8022 47.0954 19.6087 47.3467 19.6087H53.1533C53.4046 19.6087 53.6 19.8022 53.6 20.0232V20.0509ZM67 20.0509V25.4116C67 25.6327 66.8046 25.8261 66.5533 25.8261H60.7467C60.4954 25.8261 60.3 25.6327 60.3 25.4116V20.0232C60.3 19.8022 60.4954 19.6087 60.7467 19.6087H66.5533C66.8046 19.6087 67 19.8022 67 20.0232V20.0509ZM43.55 7.61608V13.0045C43.55 13.2255 43.3546 13.419 43.1033 13.419H37.2967C37.0454 13.419 36.85 13.2255 36.85 13.0045V7.61608C36.85 7.39501 37.0454 7.20158 37.2967 7.20158H43.1033C43.3546 7.20158 43.55 7.39501 43.55 7.61608ZM43.55 20.0509V25.4116C43.55 25.6327 43.3546 25.8261 43.1033 25.8261H37.2967C37.0454 25.8261 36.85 25.6327 36.85 25.4116V20.0232C36.85 19.8022 37.0454 19.6087 37.2967 19.6087H43.1033C43.3546 19.6087 43.55 19.8022 43.55 20.0232V20.0509ZM36.85 19.2219C36.8429 19.3343 36.7927 19.4398 36.7097 19.5168C36.6267 19.5938 36.5171 19.6366 36.4033 19.6364H30.15V25.384C30.15 25.4945 30.0942 25.6051 30.0104 25.688C29.9245 25.7596 29.8157 25.7988 29.7033 25.7985H23.8967C23.7748 25.8057 23.6548 25.7661 23.5617 25.688C23.5255 25.6515 23.4971 25.6083 23.4779 25.5608C23.4587 25.5134 23.4493 25.4627 23.45 25.4116V7.58844C23.45 7.47791 23.4779 7.36738 23.5617 7.31211C23.6504 7.22395 23.7709 7.17426 23.8967 7.17395H29.7033C29.815 7.17395 29.9267 7.22922 30.0104 7.31211C30.0942 7.36738 30.15 7.47791 30.15 7.58844V13.3913H36.4033C36.515 13.3913 36.6267 13.419 36.7104 13.5019C36.7942 13.5848 36.85 13.6953 36.85 13.7782V19.2219Z" fill="black"/>
</svg>
