<svg width="16" height="16" viewBox="0 0 16 16" fill="none" xmlns="http://www.w3.org/2000/svg">
<path fill-rule="evenodd" clip-rule="evenodd" d="M13.2843 2.73948C13.4482 2.67486 13.6276 2.65258 13.8039 2.67494C13.9801 2.69731 14.1468 2.7635 14.2864 2.86664C14.4261 2.96977 14.5337 3.10608 14.598 3.26137C14.6623 3.41666 14.681 3.58526 14.6522 3.74961L13.1476 12.296C13.0017 13.1204 12.0358 13.5932 11.2284 13.1825C10.5531 12.839 9.55003 12.3097 8.64782 11.7574C8.19672 11.4809 6.81488 10.5957 6.9847 9.96574C7.13065 9.42712 9.45252 7.40312 10.7793 6.19978C11.3001 5.72702 11.0626 5.45429 10.4476 5.88916C8.91981 6.96888 6.46859 8.61081 5.65792 9.07302C4.94279 9.48055 4.56996 9.55013 4.12417 9.48055C3.31085 9.35382 2.55658 9.15751 1.94095 8.91833C1.10906 8.59528 1.14952 7.52427 1.94029 7.2124L13.2843 2.73948Z" fill="#F6F6F6"/>
</svg>
