<svg width="16" height="16" viewBox="0 0 16 16" fill="none" xmlns="http://www.w3.org/2000/svg">
<path d="M15.8972 5.02172C15.8972 3.77175 14.8627 2.76622 13.5844 2.76622C11.8529 2.69428 10.0871 2.6665 8.28248 2.6665H7.71991C5.91969 2.6665 4.15071 2.69428 2.41925 2.7665C1.14408 2.7665 0.109579 3.77758 0.109579 5.02755C0.031444 6.01614 -0.00168518 7.005 0.000190058 7.99386C-0.00293534 8.98272 0.0324858 9.97251 0.106453 10.9632C0.106453 12.2132 1.14096 13.2271 2.41612 13.2271C4.2351 13.302 6.10096 13.3354 7.99807 13.3326C9.89831 13.3382 11.759 13.303 13.58 13.2271C14.8583 13.2271 15.8928 12.2132 15.8928 10.9632C15.9678 9.97158 16.0022 8.98272 15.9991 7.99108C16.0062 7.00222 15.9722 6.01243 15.8972 5.02172ZM6.46976 10.7188V5.2606L11.0016 7.9883L6.46976 10.7188Z" fill="#F6F6F6"/>
</svg>
