<svg width="18" height="18" viewBox="0 0 18 18" fill="none" xmlns="http://www.w3.org/2000/svg">
<path d="M8.50001 1.5C12.6423 1.5 16 4.85775 16 9C16 13.1423 12.6423 16.5 8.50001 16.5C7.17458 16.5023 5.87245 16.1515 4.72751 15.4838L1.00301 16.5L2.01701 12.774C1.34873 11.6287 0.997689 10.326 1.00001 9C1.00001 4.85775 4.35776 1.5 8.50001 1.5ZM5.94401 5.475L5.79401 5.481C5.69703 5.48768 5.60227 5.51315 5.51501 5.556C5.43369 5.60213 5.35943 5.65972 5.29451 5.727C5.20451 5.81175 5.15351 5.88525 5.09876 5.9565C4.82135 6.31718 4.67199 6.75998 4.67426 7.215C4.67576 7.5825 4.77176 7.94025 4.92176 8.27475C5.22851 8.95125 5.73326 9.6675 6.39926 10.3312C6.55976 10.491 6.71726 10.6515 6.88676 10.8007C7.71434 11.5293 8.70047 12.0547 9.76676 12.3353L10.1928 12.4005C10.3315 12.408 10.4703 12.3975 10.6098 12.3907C10.8282 12.3792 11.0414 12.3201 11.2345 12.2175C11.3326 12.1668 11.4285 12.1117 11.5218 12.0525C11.5218 12.0525 11.5535 12.031 11.6155 11.985C11.7168 11.91 11.779 11.8568 11.863 11.769C11.926 11.704 11.9785 11.6285 12.0205 11.5425C12.079 11.4202 12.1375 11.187 12.1615 10.9928C12.1795 10.8442 12.1743 10.7633 12.172 10.713C12.169 10.6328 12.1023 10.5495 12.0295 10.5142L11.593 10.3185C11.593 10.3185 10.9405 10.0343 10.5415 9.85275C10.4997 9.83457 10.455 9.82415 10.4095 9.822C10.3582 9.81663 10.3063 9.82236 10.2574 9.83879C10.2085 9.85523 10.1637 9.88198 10.126 9.91725C10.1223 9.91575 10.072 9.9585 9.52976 10.6155C9.49864 10.6573 9.45577 10.6889 9.40661 10.7063C9.35746 10.7237 9.30425 10.726 9.25376 10.713C9.20488 10.7 9.15701 10.6834 9.11051 10.6635C9.01751 10.6245 8.98526 10.6095 8.92151 10.5825C8.49092 10.3949 8.09234 10.1411 7.74026 9.83025C7.64576 9.74775 7.55801 9.65775 7.46801 9.57075C7.17297 9.28816 6.91582 8.96849 6.70301 8.61975L6.65876 8.5485C6.62746 8.50035 6.60179 8.44876 6.58226 8.39475C6.55376 8.2845 6.62801 8.196 6.62801 8.196C6.62801 8.196 6.81026 7.9965 6.89501 7.8885C6.97751 7.7835 7.04726 7.6815 7.09226 7.60875C7.18076 7.46625 7.20851 7.32 7.16201 7.20675C6.95201 6.69375 6.73501 6.1835 6.51101 5.676C6.46676 5.5755 6.33551 5.5035 6.21626 5.48925C6.17576 5.48425 6.13526 5.48025 6.09476 5.47725C5.99406 5.47147 5.89308 5.47248 5.79251 5.48025L5.94401 5.475Z" fill="white"/>
</svg>
