<svg width="16" height="16" viewBox="0 0 16 16" fill="none" xmlns="http://www.w3.org/2000/svg">
<path d="M4.51256 3.3335C7.00478 3.3335 9.02496 5.42295 9.02496 8.00024C9.02496 10.5775 7.00463 12.6668 4.51256 12.6668C2.02049 12.6668 0 10.5775 0 8.00024C0 5.42295 2.02033 3.3335 4.51256 3.3335ZM11.7188 3.60686C12.9649 3.60686 13.9751 5.57365 13.9751 8.00024H13.9752C13.9752 10.4262 12.9651 12.3936 11.7189 12.3936C10.4728 12.3936 9.46266 10.4262 9.46266 8.00024C9.46266 5.57428 10.4727 3.60686 11.7188 3.60686ZM15.2065 4.06447C15.6446 4.06447 16 5.82654 16 8.00024C16 10.1733 15.6448 11.936 15.2065 11.936C14.7681 11.936 14.4131 10.1738 14.4131 8.00024C14.4131 5.8267 14.7683 4.06447 15.2065 4.06447Z" fill="#F6F6F6"/>
</svg>
