<svg width="16" height="16" viewBox="0 0 16 16" fill="none" xmlns="http://www.w3.org/2000/svg">
<path d="M11.0756 1.3335H4.92177C3.97003 1.33451 3.05755 1.71305 2.38457 2.38603C1.71158 3.05902 1.33305 3.97149 1.33203 4.92324V11.0771C1.33305 12.0288 1.71158 12.9413 2.38457 13.6143C3.05755 14.2873 3.97003 14.6658 4.92177 14.6668H11.0756C12.0274 14.6658 12.9398 14.2873 13.6128 13.6143C14.2858 12.9413 14.6643 12.0288 14.6654 11.0771V4.92324C14.6643 3.97149 14.2858 3.05902 13.6128 2.38603C12.9398 1.71305 12.0274 1.33451 11.0756 1.3335ZM7.9987 11.0771C7.39014 11.0771 6.79525 10.8966 6.28925 10.5585C5.78325 10.2204 5.38888 9.73988 5.15599 9.17765C4.92311 8.61542 4.86217 7.99675 4.9809 7.39988C5.09962 6.80302 5.39267 6.25477 5.82298 5.82445C6.2533 5.39413 6.80156 5.10109 7.39842 4.98236C7.99528 4.86364 8.61395 4.92457 9.17619 5.15746C9.73842 5.39034 10.219 5.78472 10.5571 6.29072C10.8952 6.79671 11.0756 7.3916 11.0756 8.00016C11.0748 8.81595 10.7503 9.59809 10.1735 10.1749C9.59662 10.7518 8.81449 11.0762 7.9987 11.0771ZM11.8449 4.92324C11.6927 4.92324 11.544 4.87812 11.4175 4.7936C11.291 4.70908 11.1924 4.58894 11.1342 4.44838C11.076 4.30782 11.0607 4.15316 11.0904 4.00394C11.1201 3.85472 11.1933 3.71766 11.3009 3.61008C11.4085 3.5025 11.5456 3.42924 11.6948 3.39956C11.844 3.36988 11.9987 3.38511 12.1392 3.44333C12.2798 3.50155 12.3999 3.60015 12.4844 3.72665C12.569 3.85315 12.6141 4.00187 12.6141 4.15401C12.6141 4.35802 12.533 4.55368 12.3888 4.69794C12.2445 4.8422 12.0489 4.92324 11.8449 4.92324ZM10.05 8.00016C10.05 8.40587 9.92967 8.80246 9.70428 9.13979C9.47888 9.47713 9.15851 9.74004 8.78369 9.8953C8.40887 10.0506 7.99642 10.0912 7.59851 10.012C7.2006 9.93288 6.8351 9.73751 6.54822 9.45064C6.26134 9.16376 6.06598 8.79826 5.98683 8.40035C5.90768 8.00244 5.9483 7.58999 6.10356 7.21517C6.25882 6.84035 6.52174 6.51998 6.85907 6.29458C7.1964 6.06919 7.59299 5.94888 7.9987 5.94888C8.54273 5.94888 9.06448 6.165 9.44917 6.54969C9.83386 6.93438 10.05 7.45613 10.05 8.00016Z" fill="#F6F6F6"/>
</svg>
