<svg width="20" height="20" viewBox="0 0 20 20" fill="none" xmlns="http://www.w3.org/2000/svg">
<path d="M7.4987 7.5L11.2487 10L14.9987 7.5M2.4987 11.25H4.16536M0.832031 8.75H4.16536" stroke="#0149EC" stroke-width="1.5" stroke-linecap="round" stroke-linejoin="round"/>
<path d="M4.16406 6.24984V5.83317C4.16406 5.39114 4.33966 4.96722 4.65222 4.65466C4.96478 4.3421 5.3887 4.1665 5.83073 4.1665H16.6641C17.1061 4.1665 17.53 4.3421 17.8426 4.65466C18.1551 4.96722 18.3307 5.39114 18.3307 5.83317V14.1665C18.3307 14.6085 18.1551 15.0325 17.8426 15.345C17.53 15.6576 17.1061 15.8332 16.6641 15.8332H5.83073C5.3887 15.8332 4.96478 15.6576 4.65222 15.345C4.33966 15.0325 4.16406 14.6085 4.16406 14.1665V13.7498" stroke="#0149EC" stroke-width="1.5" stroke-linecap="round"/>
</svg>
